<svg width="540" height="271" viewBox="0 0 540 271" fill="none" xmlns="http://www.w3.org/2000/svg">
<path d="M177.201 189.729H161.009V110.932H177.201V189.729Z" fill="#121212"/>
<path d="M235.711 109.385C244.649 109.385 251.952 112.52 257.61 118.788C263.26 125.057 266.093 133.027 266.093 142.69V189.721H249.9V145.157C249.9 139.092 247.947 134.077 244.039 130.121C240.131 126.164 235.304 124.186 229.548 124.186C223.068 124.186 217.776 126.164 213.665 130.121C209.554 134.077 207.494 139.092 207.494 145.157V189.721H191.302V110.932H207.494V131.285C209.651 124.503 213.225 119.155 218.216 115.247C223.198 111.339 229.035 109.385 235.719 109.385H235.711Z" fill="#121212"/>
<path d="M316.575 109.385C329.218 109.385 339.5 113.912 347.413 122.956C355.326 132.009 358.567 142.951 357.126 155.805H291.9C293.032 162.18 295.962 167.349 300.692 171.306C305.422 175.262 311.121 177.241 317.805 177.241C322.942 177.241 327.541 175.979 331.604 173.463C335.666 170.948 338.825 167.528 341.088 163.206L354.659 169.222C351.166 175.905 346.176 181.246 339.704 185.259C333.232 189.273 325.775 191.276 317.341 191.276C305.52 191.276 295.596 187.368 287.577 179.561C279.558 171.754 275.545 162.033 275.545 150.416C275.545 138.799 279.477 129.062 287.341 121.19C295.205 113.326 304.942 109.394 316.567 109.394L316.575 109.385ZM316.575 123.42C310.608 123.42 305.447 125.244 301.075 128.899C296.703 132.547 293.797 137.301 292.364 143.162H340.787C339.451 137.301 336.594 132.547 332.23 128.899C327.859 125.252 322.64 123.42 316.575 123.42Z" fill="#121212"/>
<path d="M401.893 109.385C411.353 109.385 419.062 111.852 425.021 116.786C430.981 121.719 433.968 128.818 433.968 138.066V189.729H417.776V168.758C412.94 183.77 403.228 191.276 388.631 191.276C381.841 191.276 376.192 189.249 371.665 185.186C367.139 181.124 364.884 175.808 364.884 169.23C364.884 161.52 367.603 155.732 373.057 151.881C378.504 148.031 385.448 145.637 393.874 144.709L409.138 143.162C414.894 142.65 417.776 140.077 417.776 135.453C417.776 131.651 416.31 128.614 413.38 126.359C410.449 124.096 406.623 122.965 401.893 122.965C397.163 122.965 392.97 124.202 389.632 126.669C386.295 129.135 384.162 132.734 383.234 137.464L367.196 133.605C368.637 126.205 372.487 120.319 378.764 115.947C385.033 111.583 392.742 109.394 401.893 109.394V109.385ZM393.874 178.161C400.558 178.161 406.207 175.922 410.832 171.452C415.456 166.983 417.768 161.765 417.768 155.797V151.482C416.538 153.542 413.551 154.82 408.821 155.333L393.866 157.181C389.958 157.702 386.848 158.85 384.536 160.649C382.224 162.448 381.068 164.891 381.068 167.976C381.068 171.062 382.224 173.528 384.536 175.376C386.848 177.224 389.958 178.152 393.866 178.152L393.874 178.161Z" fill="#121212"/>
<path d="M149.856 189.729H75.0645V110.932H92.1768V174.464H149.856V189.729Z" fill="#121212"/>
<path d="M449.233 109.385C457.663 109.385 464.497 102.551 464.497 94.1211C464.497 85.6908 457.663 78.8567 449.233 78.8567C440.802 78.8567 433.968 85.6908 433.968 94.1211C433.968 102.551 440.802 109.385 449.233 109.385Z" fill="#121212"/>
</svg>
