<svg width="256" height="256" viewBox="0 0 256 256" fill="none" xmlns="http://www.w3.org/2000/svg">
<g clip-path="url(#clip0_132_4)">
<circle cx="128" cy="128" r="128" fill="#E81899"/>
<path d="M200.806 161.04L174.76 126.358C171.93 122.59 167.74 120.332 163.279 119.834C162.263 119.719 161.356 119.141 160.848 118.27C160.331 117.399 160.277 116.341 160.685 115.417C162.471 111.382 162.58 106.698 160.658 102.414L143.036 62.9681C140.425 57.1108 134.521 53.3333 128 53.3333C121.479 53.3333 115.575 57.1197 112.964 62.9681L95.3424 102.414C93.4288 106.698 93.5286 111.382 95.3152 115.417C95.7233 116.341 95.6598 117.399 95.152 118.27C94.635 119.141 93.7372 119.719 92.7215 119.834C88.2595 120.332 84.0696 122.59 81.2401 126.358L55.1938 161.04C51.3304 166.186 50.9404 173.083 54.1962 178.621C57.4611 184.149 63.755 187.269 70.2303 186.567L113.898 181.802C118.641 181.287 122.731 178.86 125.397 175.323C126.005 174.514 126.975 174.034 128 174.034C129.025 174.034 129.986 174.514 130.603 175.323C133.269 178.86 137.359 181.287 142.102 181.802L185.77 186.567C192.245 187.278 198.539 184.158 201.804 178.621C205.06 173.083 204.67 166.186 200.806 161.04ZM106.733 107.364L124.381 67.8743C125.016 66.4611 126.44 65.5456 128.009 65.5456C129.578 65.5456 131.002 66.4611 131.637 67.8743L149.285 107.364C149.838 108.609 149.72 110.049 148.959 111.186C148.197 112.324 146.909 113.008 145.512 113.008H110.497C109.109 113.008 107.812 112.324 107.051 111.186C106.289 110.049 106.171 108.609 106.724 107.364H106.733ZM115.793 167.484C115.167 168.701 113.952 169.519 112.574 169.67L68.8608 174.434C67.301 174.603 65.7774 173.856 64.9884 172.523C64.1994 171.19 64.2991 169.528 65.2332 168.284L91.3067 133.567C92.132 132.473 93.4561 131.851 94.8436 131.931C96.2312 132.002 97.4827 132.758 98.181 133.94L98.2082 133.984L115.666 163.617L115.693 163.662C116.392 164.844 116.428 166.284 115.802 167.493L115.793 167.484ZM131.591 154.08C130.848 155.334 129.487 156.116 128 156.116C126.522 156.116 125.152 155.342 124.409 154.089L110.996 131.327C110.252 130.074 110.252 128.518 110.996 127.265C111.739 126.012 113.1 125.229 114.587 125.229H141.404C142.882 125.229 144.252 125.994 144.995 127.256C145.739 128.518 145.739 130.065 144.995 131.318L131.591 154.08ZM191.021 172.523C190.232 173.856 188.717 174.612 187.148 174.443L143.435 169.679C142.057 169.528 140.842 168.71 140.216 167.493C139.59 166.275 139.626 164.835 140.325 163.662L140.352 163.617L157.81 133.984L157.837 133.94C158.535 132.758 159.787 132.002 161.175 131.931C162.562 131.86 163.886 132.473 164.711 133.567L190.785 168.284C191.719 169.528 191.81 171.19 191.03 172.523H191.021Z" fill="#FAFAFA"/>
</g>
<defs>
<clipPath id="clip0_132_4">
<rect width="256" height="256" fill="white"/>
</clipPath>
</defs>
</svg>
